<?xml version="1.0" encoding="utf-8"?>
<!-- Generator: Adobe Illustrator 27.3.1, SVG Export Plug-In . SVG Version: 6.00 Build 0)  -->
<svg version="1.1" id="Layer_1" xmlns="http://www.w3.org/2000/svg" xmlns:xlink="http://www.w3.org/1999/xlink" x="0px" y="0px"
	 viewBox="0 0 399.27 89.26" style="enable-background:new 0 0 399.27 89.26;" xml:space="preserve">
<style type="text/css">
	.st0{fill:#004080;}
	.st1{fill:#ED1C24;}
	.st2{fill:#FFFFFF;}
	.st3{fill:#1A3E77;}
</style>
<g>
	<g>
		<path class="st0" d="M142.08,42.39c0,4.21-1.77,6.32-5.31,6.32h-8.99V59.1h-5.57V31.56h14.56c3.54,0,5.31,2.09,5.31,6.27V42.39z
			 M136.51,40.55v-0.14c0-1.7-0.57-2.55-1.71-2.55l-7.02-0.03v5.27h7.02C135.94,43.1,136.51,42.25,136.51,40.55z"/>
		<path class="st0" d="M163.69,59.1H147.9c-2.25,0-4.08-2.43-4.08-5.42V31.56h19.88v6.27h-14.3v4.27h10.68v6.54h-10.68v4.2h14.3
			V59.1z"/>
		<path class="st0" d="M185.09,42.31c0,1.38-0.2,2.54-0.6,3.48c-0.98,1.61-2.85,2.55-5.6,2.83l5.47,10.45l-6.43,0.03l-5.47-10.47
			h-1.68V59.1h-5.57V31.56h14.56c3.54,0,5.31,2.09,5.31,6.27V42.31z M179.52,40.48v-0.07c0-1.7-0.57-2.55-1.71-2.55l-7.02-0.03v5.2
			h7.02C178.95,43.02,179.52,42.17,179.52,40.48z"/>
		<path class="st1" d="M206.34,37.83h-14.28v4.27h10.65v6.54h-10.65V59.1h-5.57V36.98c0-2.99,1.83-5.42,4.08-5.42h15.77V37.83z"/>
		<path class="st1" d="M227.51,59.1h-15.79c-2.25,0-4.08-2.43-4.08-5.42V31.56h19.88v6.27h-14.3v4.27h10.68v6.54h-10.68v4.2h14.3
			V59.1z"/>
		<path class="st1" d="M251.98,59.1h-6.43l-5.1-9.81l-5.16,9.81h-6.43l7.31-13.77l-7.31-13.77h6.43l5.16,9.81l5.1-9.81h6.43
			l-7.26,13.77L251.98,59.1z"/>
		<path class="st0" d="M286.78,42.39c0,4.21-1.77,6.32-5.31,6.32h-8.99V59.1h-5.57V31.56h14.56c3.54,0,5.31,2.09,5.31,6.27V42.39z
			 M281.2,40.55v-0.14c0-1.7-0.57-2.55-1.71-2.55l-7.02-0.03v5.27h7.02C280.63,43.1,281.2,42.25,281.2,40.55z"/>
		<path class="st0" d="M308.83,59.1h-5.57V48.71h-8.73V59.1h-5.57V37.83c0-4.18,1.76-6.27,5.29-6.27h14.59V59.1z M303.26,43.1v-5.27
			l-7.02,0.03c-1.14,0-1.71,0.85-1.71,2.55v2.69H303.26z"/>
		<path class="st0" d="M315.36,59.1h-5.57V31.56h5.57V59.1z"/>
		<path class="st0" d="M337.85,59.1h-5.57V40.48c0-1.03-0.22-1.75-0.65-2.14c-0.36-0.34-0.96-0.52-1.79-0.52h-6.3V59.1h-5.57V31.56
			h14.3c1.71,0,3.06,0.59,4.04,1.76c1.02,1.24,1.53,3,1.53,5.27V59.1z"/>
		<path class="st0" d="M358.97,37.83h-6.79V59.1h-5.57V37.83h-6.79v-6.27h19.15V37.83z"/>
	</g>
	<g>
		<circle class="st1" cx="74.01" cy="44.63" r="33.27"/>
		<path class="st2" d="M100.67,36.75c-1.12-3.43-4.8-5.31-8.24-4.2c-2.74,0.89-13.23,7.41-17.04,10.92
			c2.12-4.73,5.15-16.68,5.15-19.55c0-3.61-2.93-6.54-6.54-6.54c-3.61,0-6.54,2.93-6.54,6.54c0,2.88,2.96,14.87,5.12,19.58
			c-3.85-3.48-14.27-10.06-17-10.94c-3.43-1.12-7.12,0.76-8.24,4.2c-1.12,3.43,0.76,7.12,4.2,8.24c2.74,0.89,15.05,1.78,20.2,1.19
			c-4.5,2.58-13.97,10.46-15.66,12.79c-2.12,2.92-1.47,7.01,1.45,9.13c2.92,2.12,7.01,1.47,9.13-1.45
			c1.69-2.33,6.35-13.77,7.37-18.85c1.06,5.08,5.63,16.52,7.32,18.85c2.12,2.92,6.21,3.57,9.13,1.45c2.92-2.12,3.57-6.21,1.45-9.13
			c-1.69-2.33-11.13-10.29-15.65-12.84c5.16,0.56,17.45-0.25,20.19-1.14C99.91,43.87,101.79,40.19,100.67,36.75z"/>
	</g>
</g>
<g>
	<g>
		<path class="st3" d="M207.56,75.41l1.8-8.59h3.59c0.62,0,1.09,0.07,1.4,0.21s0.57,0.39,0.77,0.73s0.3,0.73,0.3,1.16
			c0,0.36-0.07,0.72-0.22,1.08s-0.33,0.67-0.55,0.91s-0.44,0.42-0.67,0.54s-0.47,0.21-0.73,0.27c-0.55,0.13-1.11,0.19-1.67,0.19
			h-2.15l-0.73,3.49H207.56z M209.64,70.95h1.89c0.73,0,1.27-0.08,1.62-0.24s0.62-0.4,0.83-0.72s0.31-0.67,0.31-1.03
			c0-0.28-0.05-0.51-0.16-0.69s-0.26-0.31-0.46-0.39s-0.58-0.13-1.15-0.13h-2.2L209.64,70.95z"/>
		<path class="st3" d="M215.98,75.41l4.87-8.59h1.35l1.42,8.59h-1.11l-0.42-2.47h-3.47l-1.38,2.47H215.98z M219.11,72.05h2.84
			l-0.33-2.16c-0.13-0.86-0.21-1.57-0.24-2.14c-0.2,0.49-0.48,1.08-0.86,1.75L219.11,72.05z"/>
		<path class="st3" d="M226.97,75.41l1.8-8.59h1.14l-1.79,8.59H226.97z"/>
		<path class="st3" d="M232.27,75.41l1.8-8.59h1.11l1.45,3.22c0.44,0.98,0.79,1.81,1.05,2.48c0.15,0.39,0.32,0.92,0.52,1.58
			c0.11-0.72,0.24-1.47,0.4-2.24l1.05-5.05h1.12l-1.79,8.59h-1.14l-2.13-4.96c-0.38-0.88-0.67-1.65-0.88-2.31
			c-0.06,0.56-0.17,1.24-0.34,2.06l-1.09,5.22H232.27z"/>
		<path class="st3" d="M245.14,75.41l1.59-7.61h-2.82l0.21-0.98h6.76l-0.21,0.98h-2.79l-1.59,7.61H245.14z"/>
		<path class="st3" d="M260.34,75.41l0.69-3.32l-2.64-5.27h1.23l1.27,2.51c0.28,0.55,0.55,1.13,0.81,1.76
			c0.29-0.53,0.68-1.11,1.18-1.74l2.02-2.53h1.37l-4.1,5.36l-0.67,3.23H260.34z"/>
		<path class="st3" d="M268.15,71.81c0-1.53,0.44-2.77,1.33-3.72s1.96-1.42,3.22-1.42c1.07,0,1.94,0.35,2.62,1.05
			s1.01,1.63,1.01,2.8c0,0.84-0.17,1.61-0.51,2.33c-0.25,0.54-0.57,1-0.96,1.39s-0.8,0.69-1.24,0.9c-0.59,0.28-1.21,0.42-1.86,0.42
			c-0.69,0-1.31-0.16-1.88-0.49s-0.99-0.79-1.28-1.37S268.15,72.47,268.15,71.81z M269.28,71.87c0,0.5,0.1,0.97,0.31,1.39
			s0.52,0.75,0.93,0.99s0.85,0.36,1.31,0.36c0.44,0,0.86-0.1,1.26-0.31s0.75-0.5,1.07-0.87s0.56-0.83,0.74-1.38s0.27-1.08,0.27-1.61
			c0-0.86-0.24-1.54-0.72-2.04s-1.07-0.76-1.77-0.76c-0.9,0-1.69,0.38-2.38,1.15S269.28,70.57,269.28,71.87z"/>
		<path class="st3" d="M280.83,66.82h1.15l-1.1,5.28c-0.09,0.44-0.13,0.76-0.13,0.97c0,0.46,0.18,0.83,0.54,1.11
			s0.82,0.42,1.37,0.42c0.44,0,0.84-0.1,1.22-0.3s0.67-0.5,0.89-0.89s0.42-1.01,0.59-1.87l0.99-4.73h1.15l-1.05,5.04
			c-0.18,0.86-0.42,1.54-0.71,2.04s-0.7,0.9-1.22,1.21s-1.12,0.45-1.81,0.45c-0.65,0-1.21-0.11-1.68-0.32s-0.83-0.51-1.07-0.89
			s-0.35-0.81-0.35-1.29c0-0.3,0.08-0.82,0.24-1.55L280.83,66.82z"/>
		<path class="st3" d="M289.75,75.41l1.8-8.59h3.6c0.71,0,1.25,0.06,1.62,0.18s0.66,0.34,0.86,0.67s0.31,0.74,0.31,1.24
			c0,0.7-0.23,1.28-0.69,1.74s-1.2,0.76-2.21,0.9c0.31,0.23,0.55,0.46,0.71,0.68c0.36,0.5,0.65,1.03,0.87,1.56l0.66,1.62h-1.28
			l-0.62-1.6c-0.22-0.58-0.48-1.08-0.76-1.5c-0.2-0.29-0.39-0.49-0.6-0.58s-0.53-0.14-0.99-0.14h-1.34l-0.8,3.81H289.75z
			 M291.89,70.66h1.59c0.73,0,1.21-0.01,1.44-0.03c0.43-0.04,0.79-0.14,1.07-0.29s0.49-0.36,0.64-0.62s0.23-0.54,0.23-0.83
			c0-0.25-0.06-0.47-0.17-0.65s-0.26-0.31-0.45-0.38s-0.5-0.1-0.94-0.1h-2.8L291.89,70.66z"/>
		<path class="st3" d="M305.85,75.41l1.79-8.59h2.59c0.62,0,1.1,0.04,1.42,0.13c0.47,0.12,0.87,0.34,1.2,0.65s0.58,0.7,0.75,1.16
			s0.25,0.99,0.25,1.56c0,0.69-0.1,1.32-0.31,1.89s-0.48,1.07-0.82,1.5s-0.69,0.77-1.06,1.01s-0.81,0.42-1.31,0.54
			c-0.38,0.09-0.85,0.13-1.41,0.13H305.85z M307.2,74.43h1.36c0.61,0,1.16-0.06,1.63-0.17c0.3-0.07,0.55-0.17,0.76-0.31
			c0.28-0.18,0.53-0.41,0.76-0.7c0.3-0.38,0.53-0.82,0.71-1.31s0.27-1.05,0.27-1.67c0-0.7-0.12-1.23-0.36-1.6s-0.55-0.62-0.93-0.74
			c-0.28-0.09-0.71-0.13-1.29-0.13h-1.52L307.2,74.43z"/>
		<path class="st3" d="M316.6,75.41l1.8-8.59h3.6c0.71,0,1.25,0.06,1.62,0.18s0.66,0.34,0.86,0.67s0.31,0.74,0.31,1.24
			c0,0.7-0.23,1.28-0.69,1.74s-1.2,0.76-2.21,0.9c0.31,0.23,0.55,0.46,0.71,0.68c0.36,0.5,0.65,1.03,0.87,1.56l0.66,1.62h-1.28
			l-0.62-1.6c-0.22-0.58-0.48-1.08-0.76-1.5c-0.2-0.29-0.39-0.49-0.6-0.58s-0.53-0.14-0.99-0.14h-1.34l-0.8,3.81H316.6z
			 M318.74,70.66h1.59c0.73,0,1.21-0.01,1.44-0.03c0.43-0.04,0.79-0.14,1.07-0.29s0.49-0.36,0.64-0.62s0.23-0.54,0.23-0.83
			c0-0.25-0.06-0.47-0.17-0.65s-0.26-0.31-0.45-0.38s-0.5-0.1-0.94-0.1h-2.8L318.74,70.66z"/>
		<path class="st3" d="M327.31,75.41l1.8-8.59h6.2l-0.21,0.98h-5.05l-0.56,2.67h4.92l-0.21,0.98h-4.92l-0.62,2.99h5.41l-0.21,0.97
			H327.31z"/>
		<path class="st3" d="M336.6,75.41l4.87-8.59h1.35l1.42,8.59h-1.11l-0.42-2.47h-3.47l-1.38,2.47H336.6z M339.73,72.05h2.84
			l-0.33-2.16c-0.13-0.86-0.21-1.57-0.24-2.14c-0.2,0.49-0.48,1.08-0.86,1.75L339.73,72.05z"/>
		<path class="st3" d="M347.44,75.41l1.79-8.59h1.41l0.87,5.57c0.11,0.73,0.19,1.43,0.22,2.1c0.24-0.58,0.64-1.36,1.2-2.35
			l3.01-5.32h1.44l-1.79,8.59h-1.13l0.9-4.18c0.21-0.96,0.5-2.05,0.89-3.25c-0.25,0.56-0.55,1.16-0.91,1.8l-3.2,5.62h-1.11
			l-0.86-5.51c-0.08-0.5-0.13-1.09-0.17-1.76c-0.1,0.75-0.19,1.35-0.29,1.79l-1.14,5.48H347.44z"/>
	</g>
</g>
</svg>
