<svg id="Layer_1" enable-background="new 0 0 512 512" height="512" viewBox="0 0 512 512" width="512" xmlns="http://www.w3.org/2000/svg"><path d="m259.161 299.393c-38.456 0-69.742 31.286-69.742 69.742s31.286 69.742 69.742 69.742 69.741-31.286 69.741-69.742-31.286-69.742-69.741-69.742zm0 119.483c-27.428 0-49.742-22.314-49.742-49.742s22.314-49.742 49.742-49.742c27.427 0 49.741 22.314 49.741 49.742s-22.314 49.742-49.741 49.742zm192.959-122.57c-3.474-17.304-10.651-32.265-20.756-43.267-11.747-12.789-26.904-19.548-43.832-19.548h-41.352l-30.51-43.617c-1.871-2.675-4.93-4.268-8.194-4.268h-102.953c-3.264 0-6.323 1.593-8.194 4.268l-30.51 43.617h-41.352c-16.928 0-32.084 6.76-43.832 19.548-10.105 11.002-17.283 25.963-20.756 43.267l-28.446 141.721c-2.916 14.53 1.053 29.338 11.177 41.696 12.661 15.455 33.126 25.055 53.41 25.055h319.96c20.284 0 40.75-9.601 53.41-25.055 10.124-12.358 14.093-27.167 11.177-41.696zm1.798 170.742c-8.823 10.771-23.715 17.729-37.938 17.729h-319.959c-14.224 0-29.116-6.959-37.938-17.729-4.425-5.401-9.237-14.137-7.04-25.086l28.447-141.721c4.536-22.601 18.734-46.75 44.979-46.75h46.561c3.264 0 6.323-1.593 8.194-4.268l30.509-43.617h92.536l30.509 43.617c1.871 2.675 4.93 4.268 8.194 4.268h46.561c26.244 0 40.442 24.15 44.979 46.75l28.447 141.721c2.196 10.949-2.616 19.685-7.041 25.086zm30.286-383.881c-15.767-19.03-38.226-34.879-66.755-47.107-60.724-26.027-133.135-28.837-161.449-28.837s-100.724 2.81-161.449 28.837c-28.529 12.228-50.989 28.077-66.755 47.107-18.444 22.262-27.796 48.874-27.796 79.095v9.158c0 11.857 4.634 23.022 13.049 31.437s19.58 13.049 31.437 13.048h63.411c24.529 0 44.485-19.956 44.485-44.485v-21.476c0-11.832 8.104-21.707 19.708-24.015 26.569-5.286 54.8-7.966 83.911-7.966 29.109 0 57.34 2.68 83.91 7.965 11.604 2.309 19.708 12.184 19.708 24.016v21.477c0 24.529 19.956 44.485 44.485 44.485h63.41.001c11.857 0 23.022-4.634 31.437-13.049s13.048-19.579 13.048-31.437v-9.158c0-30.221-9.352-56.832-27.796-79.095zm7.796 88.253c0 6.515-2.554 12.657-7.191 17.294s-10.779 7.191-17.294 7.191h-63.411c-13.501 0-24.485-10.984-24.485-24.485v-21.477c0-21.496-14.724-39.437-35.806-43.631-27.852-5.541-57.396-8.35-87.812-8.35-30.417 0-59.962 2.81-87.813 8.35-21.082 4.193-35.806 22.135-35.806 43.631v21.476c0 13.501-10.984 24.485-24.485 24.485h-63.412c-6.515 0-12.657-2.554-17.294-7.191s-7.191-10.778-7.191-17.293v-9.158c0-48.1 27.734-84.375 82.431-107.819 57.318-24.568 126.49-27.22 153.57-27.22 27.079 0 96.251 2.652 153.569 27.22 54.697 23.444 82.43 59.72 82.43 107.82z"/></svg>